<?xml version="1.0" encoding="UTF-8"?>
<svg id="Layer_2" data-name="Layer 2" xmlns="http://www.w3.org/2000/svg" viewBox="0 0 920.55 921.26">
  <defs>
    <style>
      .cls-1 {
        fill: #48a3c6;
      }

      .cls-1, .cls-2 {
        fill-rule: evenodd;
      }

      .cls-2 {
        fill: #fefefe;
        stroke: #48a3c6;
        stroke-width: 20;
      }
    </style>
  </defs>
  <g id="Layer_1-2" data-name="Layer 1">
    <g>
      <path class="cls-1" d="m 462.568 936.324 c 37.32 -2.01 73.46 -8.62 107.83 -19.02 c 39.8 -12.05 77.36 -29.41 111.85 -51.14 c 131.56 -66.119 207.87 -213.66 226.868 -369.702 H 789.555 C 794.537 599.833 672.485 812.8 541.716 815.291 V 110.251 C 762.156 162.689 782.853 365.319 784.302 421.84 H 910.351 c -12.444 -279.078 -163.766 -389.849 -447.097 -426.038 Z"/>
      <path class="cls-2" d="m 435.12 681.97 v 236.597 c -36.954 6.143 -71.129 -14.659 -114.219 -28.032 v -391.77 h -123.327 v 292.219 C -38.385 653.874 -51.823 27.345 432.607 -1 L 434.41 0 h 0.47 l 0.24 0.12 v 681.85 Z M 332.828 363.285 H 200.132 C 225.327 218.831 265.64 195.315 331.149 183.557 V 366.645"/>
    </g>
  </g>
</svg>

